<?xml version="1.0" encoding="UTF-8"?><svg xmlns="http://www.w3.org/2000/svg" viewBox="0 0 479.32 484.17"><defs><style>.cls-1{fill:#424242;}.cls-1,.cls-2{fill-rule:evenodd;}.cls-3,.cls-4{fill:#fff;stroke:#231f20;stroke-miterlimit:10;}.cls-4{stroke-width:5px;}.cls-2{fill:#757375;}</style></defs><g id="Layer_2"><path class="cls-4" d="m241,2.5C110.3,2.5,4.35,108.45,4.35,239.15c0,76.1,35.92,143.8,91.72,187.09,1.1.86,2.21,1.7,3.33,2.54,1.59,1.19,3.19,2.35,4.8,3.5,38.62,27.41,85.83,43.52,136.79,43.52,43.35,0,83.98-11.66,118.92-32.01,23.83-13.88,45.01-31.81,62.61-52.85.07-.17.15-.34.23-.52,11.66-22.74,22.06-46.1,32.38-69.48.49-1.12,1.16-1.91,1.93-2.44.03-.09.06-.17.1-.26,14.13-32.2,17.94-68.59,18.03-103.42,0-1.27.32-2.35.85-3.22C462.4,93.89,362.38,2.5,241,2.5Z"/><polyline class="cls-3" points="23.44 332.42 22.34 356.86 53.08 410.06 98.79 445.45 146.93 467.09 184.66 469.06"/></g><g id="Layer_1"><g><path class="cls-1" d="m216.8,484.17c-8.52-2.38-17.39-2.41-26.08-3.67-24.36-3.55-47.74-10.32-70.39-19.82-24.27-10.19-46.19-24.13-66.6-40.42-7.8-6.22-14.75-13.47-22.09-20.24-1.26-1.16-2.39-2.49-2.44-4.21-.59-20.95-9.44-39.76-15.68-59.25-6.48-20.24-10.31-40.97-12.57-62.1-1.73-16.17-.57-32.28-.71-48.5,3.25,4.73,2.51,10.38,3.09,15.57,5.46,49.46,21.65,95.19,48.03,137.51,3.02,4.85,7.42,7.86,12.2,10.27,16.66,8.43,28.05,22.09,38.62,36.73,4.23,5.87,9.13,11.27,13.3,17.17,4.6,6.51,11.84,6.04,18.36,7.49,15.79,3.49,31.35,8.07,47.46,10.07,31.48,3.9,60.49-2.11,86.14-21.21,13.5-10.05,24.53-22.28,32.96-36.86,3.81-6.59,3.09-13.89,4.48-20.82,1.93-9.66,2.82-19.54,4-29.34.23-1.93,1.01-3.01,2.77-3.59,10.24-3.35,20.47-6.71,30.92-10.13.84,20.72-.45,41.02,1.89,61.4,10.48-1.91,19.48-7.23,28.28-12.53,34.53-20.77,57.43-50.79,71.1-88.14,8.12-22.2,12.44-45.05,14.2-68.53,1.06-14.06,1.53-28.05-.13-42.06-.35-2.97.14-5.73,1.14-8.46,2.54-6.92,5.1-13.83,7.88-21.36,9.8,27.73,13.44,55.59,12.14,84.12-1.87,41.16-14.47,79.27-33.59,115.56-8.29,15.74-18.64,30.2-27.94,45.3-10.9,17.68-27.62,28.12-44.31,38.66-25.01,15.79-52.41,26.43-81.24,33.25-15.97,3.78-32.21,6.25-48.67,6.97-1.31.06-3.03-.76-3.81,1.16h-2.52c-5.04-1.96-10.09-1.96-15.13,0h-5.04Z"/><path class="cls-2" d="m221.85,484.17c5.04-1.96,10.09-1.96,15.13,0h-15.13Z"/></g></g></svg>