<?xml version="1.0" standalone="no"?>
<!DOCTYPE svg PUBLIC "-//W3C//DTD SVG 20010904//EN"
 "http://www.w3.org/TR/2001/REC-SVG-20010904/DTD/svg10.dtd">
<svg version="1.0" xmlns="http://www.w3.org/2000/svg"
 width="479.000000pt" height="484.000000pt" viewBox="0 0 479.000000 484.000000"
 preserveAspectRatio="xMidYMid meet">
<metadata>
Created by potrace 1.16, written by Peter Selinger 2001-2019
</metadata>
<g transform="translate(0.000000,484.000000) scale(0.100000,-0.100000)"
fill="#000000" stroke="none">
<path d="M2095 4824 c-530 -72 -1012 -311 -1388 -690 -360 -362 -593 -828
-667 -1336 -11 -73 -20 -155 -20 -183 0 -38 -3 -46 -11 -35 -7 10 -9 -73 -5
-275 4 -256 7 -307 30 -435 32 -179 70 -323 135 -510 71 -207 99 -308 111
-407 6 -48 14 -92 18 -99 16 -29 225 -214 330 -292 410 -305 838 -474 1377
-543 390 -49 852 10 1263 162 292 108 643 318 801 479 61 62 269 377 374 565
168 302 289 663 332 988 19 151 20 467 0 602 -24 168 -66 343 -100 420 -8 17
-28 65 -44 107 -51 130 -146 309 -229 434 -391 583 -993 958 -1685 1049 -146
19 -481 19 -622 -1z m615 -60 c523 -67 1005 -311 1377 -698 224 -233 398 -506
507 -799 l37 -99 -27 -71 c-27 -70 -27 -73 -29 -341 -1 -224 -5 -296 -24 -415
-39 -254 -103 -472 -197 -671 -151 -319 -442 -615 -756 -768 -105 -51 -143
-60 -153 -35 -4 10 -9 148 -12 306 -4 204 -9 287 -17 284 -6 -2 -82 -28 -169
-56 -131 -44 -158 -56 -162 -74 -3 -12 -11 -74 -20 -137 -42 -332 -47 -348
-133 -469 -149 -209 -380 -377 -613 -445 -134 -38 -235 -50 -393 -43 -144 6
-172 11 -546 96 l-175 39 -41 45 c-22 25 -88 108 -147 185 -59 77 -140 171
-180 209 -69 66 -88 79 -225 164 -51 32 -72 53 -112 116 -121 189 -271 522
-344 765 -101 337 -107 773 -15 1148 143 579 489 1068 994 1404 116 77 337
189 476 240 339 125 725 167 1099 120z"/>
</g>
</svg>
