<?xml version="1.0" encoding="UTF-8" standalone="no" ?>
<!DOCTYPE svg PUBLIC "-//W3C//DTD SVG 1.1//EN" "http://www.w3.org/Graphics/SVG/1.1/DTD/svg11.dtd">
<svg xmlns="http://www.w3.org/2000/svg" xmlns:xlink="http://www.w3.org/1999/xlink" version="1.1" width="1080" height="1080" viewBox="0 0 1080 1080" xml:space="preserve">
<desc>Created with Fabric.js 5.2.4</desc>
<defs>
</defs>
<g transform="matrix(1 0 0 1 540 540)" id="13a18767-a398-4351-9ce5-07de1894a73a"  >
<rect style="stroke: none; stroke-width: 1; stroke-dasharray: none; stroke-linecap: butt; stroke-dashoffset: 0; stroke-linejoin: miter; stroke-miterlimit: 4; fill: rgb(255,255,255); fill-rule: nonzero; opacity: 1; visibility: hidden;" vector-effect="non-scaling-stroke"  x="-540" y="-540" rx="0" ry="0" width="1080" height="1080" />
</g>
<g transform="matrix(1 0 0 1 540 540)" id="0aee6695-097e-4647-9c23-0d0aae158d14"  >
</g>
<g transform="matrix(0.64 0 0 0.64 909.15 384.04)"  >
<path style="stroke: none; stroke-width: 1; stroke-dasharray: none; stroke-linecap: butt; stroke-dashoffset: 0; stroke-linejoin: miter; stroke-miterlimit: 4; fill: rgb(241,241,241); fill-rule: nonzero; opacity: 1;" vector-effect="non-scaling-stroke"  transform=" translate(-1300.65, -34.4)" d="M 1300.4 29.4 C 1301.6000000000001 29.4 1302.6000000000001 29.5 1303.1000000000001 29.799999999999997 C 1304.1000000000001 30.199999999999996 1304.7 31.099999999999998 1304.7 32.3 C 1304.7 33.199999999999996 1304.4 33.9 1303.7 34.3 C 1303.4 34.5 1302.9 34.699999999999996 1302.3 34.8 C 1303.1 34.9 1303.7 35.199999999999996 1304 35.8 C 1304.4 36.3 1304.6 36.9 1304.6 37.4 L 1304.6 38 C 1304.6 38.2 1304.6 38.5 1304.6 38.8 C 1304.6 39.099999999999994 1304.6999999999998 39.199999999999996 1304.6999999999998 39.3 L 1304.7999999999997 39.4 L 1303.0999999999997 39.4 C 1303.0999999999997 39.4 1303.0999999999997 39.3 1303.0999999999997 39.3 C 1303.0999999999997 39.3 1303.0999999999997 39.199999999999996 1303.0999999999997 39.199999999999996 L 1303.0999999999997 38.9 L 1303.0999999999997 38.1 C 1303.0999999999997 36.9 1302.7999999999997 36.2 1302.1999999999996 35.800000000000004 C 1301.7999999999995 35.6 1301.1999999999996 35.50000000000001 1300.1999999999996 35.50000000000001 L 1298.7999999999995 35.50000000000001 L 1298.7999999999995 39.50000000000001 L 1296.9999999999995 39.50000000000001 L 1296.9999999999995 29.4 L 1300.4 29.4 z M 1302.3 30.9 C 1301.8999999999999 30.599999999999998 1301.1 30.5 1300.2 30.5 L 1298.7 30.5 L 1298.7 34.1 L 1300.3 34.1 C 1301.1 34.1 1301.6 34 1302 33.9 C 1302.7 33.6 1303 33.1 1303 32.3 C 1302.9 31.7 1302.7 31.2 1302.3 30.9 M 1307 40.9 C 1305.2 42.699999999999996 1303.1 43.6 1300.5 43.6 C 1298 43.6 1295.8 42.7 1294.1 40.9 C 1292.3 39.1 1291.5 36.9 1291.5 34.4 C 1291.5 31.9 1292.4 29.7 1294.2 27.9 C 1296 26.099999999999998 1298.1000000000001 25.2 1300.6000000000001 25.2 C 1303.1000000000001 25.2 1305.3000000000002 26.099999999999998 1307.1000000000001 27.9 C 1308.9 29.7 1309.8000000000002 31.799999999999997 1309.8000000000002 34.4 C 1309.7 37 1308.8 39.1 1307 40.9 M 1295 28.8 C 1293.5 30.3 1292.7 32.2 1292.7 34.4 C 1292.7 36.6 1293.5 38.5 1295 40 C 1296.5 41.5 1298.4 42.3 1300.6 42.3 C 1302.7999999999997 42.3 1304.6 41.5 1306.1999999999998 40 C 1307.6999999999998 38.4 1308.4999999999998 36.6 1308.4999999999998 34.4 C 1308.4999999999998 32.199999999999996 1307.6999999999998 30.4 1306.1999999999998 28.799999999999997 C 1304.6999999999998 27.299999999999997 1302.7999999999997 26.499999999999996 1300.6 26.499999999999996 C 1298.4 26.5 1296.5 27.3 1295 28.8" stroke-linecap="round" />
</g>
<g transform="matrix(3.45 0 0 3.45 540.17 540)"  >
<path style="stroke: none; stroke-width: 1; stroke-dasharray: none; stroke-linecap: butt; stroke-dashoffset: 0; stroke-linejoin: miter; stroke-miterlimit: 4; fill: rgb(38,169,224); fill-rule: nonzero; opacity: 1;" vector-effect="non-scaling-stroke"  transform=" translate(-114.9, -147.05)" d="M 0.3 0 L 0.3 207.6 C 0.3 231.2 22.900000000000002 247.89999999999998 60.099999999999994 268.5 C 89.3 284.6 114.89999999999999 294.1 114.89999999999999 294.1 C 114.89999999999999 294.1 140.5 284.5 169.7 268.5 C 206.89999999999998 248 229.5 231.3 229.5 207.6 L 229.5 0" stroke-linecap="round" />
</g>
<g transform="matrix(3.45 0 0 3.45 402.07 91.69)"  >
<path style="stroke: none; stroke-width: 1; stroke-dasharray: none; stroke-linecap: butt; stroke-dashoffset: 0; stroke-linejoin: miter; stroke-miterlimit: 4; fill: rgb(35,31,32); fill-rule: nonzero; opacity: 1;" vector-effect="non-scaling-stroke"  transform=" translate(-74.9, -17.2)" d="M 70.9 34.4 C 77.5 32.1 84.4 30.299999999999997 91.4 29.099999999999998 L 86.3 0 L 58.4 0 L 70.9 34.4 C 71 34.4 71 34.4 70.9 34.4 z" stroke-linecap="round" />
</g>
<g transform="matrix(3.45 0 0 3.45 165.92 300.74)"  >
<path style="stroke: none; stroke-width: 1; stroke-dasharray: none; stroke-linecap: butt; stroke-dashoffset: 0; stroke-linejoin: miter; stroke-miterlimit: 4; fill: rgb(35,31,32); fill-rule: nonzero; opacity: 1;" vector-effect="non-scaling-stroke"  transform=" translate(-6.5, -77.75)" d="M 12.7 74.3 L 0.3 63.9 L 0.3 91.6 C 4 85.5 8.1 79.7 12.7 74.3 L 12.7 74.3 z" stroke-linecap="round" />
</g>
<g transform="matrix(3.45 0 0 3.45 227.2 130.36)"  >
<path style="stroke: none; stroke-width: 1; stroke-dasharray: none; stroke-linecap: butt; stroke-dashoffset: 0; stroke-linejoin: miter; stroke-miterlimit: 4; fill: rgb(35,31,32); fill-rule: nonzero; opacity: 1;" vector-effect="non-scaling-stroke"  transform=" translate(-24.25, -28.4)" d="M 48.2 44.8 L 48.2 44.8 L 22.3 0 L 0.3 0 L 0.3 20.5 L 30.7 56.8 C 36.2 52.4 42 48.3 48.2 44.8 z" stroke-linecap="round" />
</g>
<g transform="matrix(3.45 0 0 3.45 681.38 92.21)"  >
<path style="stroke: none; stroke-width: 1; stroke-dasharray: none; stroke-linecap: butt; stroke-dashoffset: 0; stroke-linejoin: miter; stroke-miterlimit: 4; fill: rgb(35,31,32); fill-rule: nonzero; opacity: 1;" vector-effect="non-scaling-stroke"  transform=" translate(-155.8, -17.35)" d="M 139.3 29.3 C 146.3 30.6 153.10000000000002 32.4 159.70000000000002 34.7 L 159.70000000000002 34.7 L 172.3 0 L 144.4 0 L 139.3 29.3 L 139.3 29.3 z" stroke-linecap="round" />
</g>
<g transform="matrix(3.45 0 0 3.45 778.22 108.61)"  >
<path style="stroke: none; stroke-width: 1; stroke-dasharray: none; stroke-linecap: butt; stroke-dashoffset: 0; stroke-linejoin: miter; stroke-miterlimit: 4; fill: rgb(35,31,32); fill-rule: nonzero; opacity: 1;" vector-effect="non-scaling-stroke"  transform=" translate(-183.85, -22.1)" d="M 180.6 44.2 L 180.6 44.2 L 206.2 0 L 174.39999999999998 0 L 161.49999999999997 35.4 C 168.1 37.8 174.5 40.8 180.6 44.2 z" stroke-linecap="round" />
</g>
<g transform="matrix(3.45 0 0 3.45 305.23 108.09)"  >
<path style="stroke: none; stroke-width: 1; stroke-dasharray: none; stroke-linecap: butt; stroke-dashoffset: 0; stroke-linejoin: miter; stroke-miterlimit: 4; fill: rgb(35,31,32); fill-rule: nonzero; opacity: 1;" vector-effect="non-scaling-stroke"  transform=" translate(-46.85, -21.95)" d="M 69.1 35.1 L 69.1 35.1 L 56.4 0 L 24.6 0 L 49.900000000000006 43.9 C 56 40.4 62.5 37.5 69.1 35.1 z" stroke-linecap="round" />
</g>
<g transform="matrix(3.45 0 0 3.45 887.32 201.31)"  >
<path style="stroke: none; stroke-width: 1; stroke-dasharray: none; stroke-linecap: butt; stroke-dashoffset: 0; stroke-linejoin: miter; stroke-miterlimit: 4; fill: rgb(35,31,32); fill-rule: nonzero; opacity: 1;" vector-effect="non-scaling-stroke"  transform=" translate(-215.45, -48.95)" d="M 201.2 58.5 C 206.6 63 211.7 68 216.29999999999998 73.3 L 229.7 62.099999999999994 L 229.7 24.6 L 201.2 58.5 L 201.2 58.5 z" stroke-linecap="round" />
</g>
<g transform="matrix(3.45 0 0 3.45 194.4 198.89)"  >
<path style="stroke: none; stroke-width: 1; stroke-dasharray: none; stroke-linecap: butt; stroke-dashoffset: 0; stroke-linejoin: miter; stroke-miterlimit: 4; fill: rgb(35,31,32); fill-rule: nonzero; opacity: 1;" vector-effect="non-scaling-stroke"  transform=" translate(-14.75, -48.25)" d="M 0.3 23.6 L 0.3 61.4 L 14 72.9 C 18.7 67.60000000000001 23.8 62.60000000000001 29.2 58.10000000000001 L 0.3 23.6 z" stroke-linecap="round" />
</g>
<g transform="matrix(3.45 0 0 3.45 915.29 301.95)"  >
<path style="stroke: none; stroke-width: 1; stroke-dasharray: none; stroke-linecap: butt; stroke-dashoffset: 0; stroke-linejoin: miter; stroke-miterlimit: 4; fill: rgb(35,31,32); fill-rule: nonzero; opacity: 1;" vector-effect="non-scaling-stroke"  transform=" translate(-223.55, -78.1)" d="M 229.6 91.6 L 229.6 64.6 L 217.5 74.69999999999999 C 221.9 80 226 85.6 229.6 91.6 z" stroke-linecap="round" />
</g>
<g transform="matrix(3.45 0 0 3.45 854.52 131.05)"  >
<path style="stroke: none; stroke-width: 1; stroke-dasharray: none; stroke-linecap: butt; stroke-dashoffset: 0; stroke-linejoin: miter; stroke-miterlimit: 4; fill: rgb(35,31,32); fill-rule: nonzero; opacity: 1;" vector-effect="non-scaling-stroke"  transform=" translate(-205.95, -28.6)" d="M 208.4 0 L 182.3 45.2 L 182.3 45.2 C 188.4 48.800000000000004 194.20000000000002 52.800000000000004 199.70000000000002 57.2 L 199.70000000000002 57.2 L 229.60000000000002 21.5 L 229.60000000000002 0 L 208.4 0 z" stroke-linecap="round" />
</g>
<g transform="matrix(3.45 0 0 3.45 590.06 82.2)"  >
<path style="stroke: none; stroke-width: 1; stroke-dasharray: none; stroke-linecap: butt; stroke-dashoffset: 0; stroke-linejoin: miter; stroke-miterlimit: 4; fill: rgb(35,31,32); fill-rule: nonzero; opacity: 1;" vector-effect="non-scaling-stroke"  transform=" translate(-129.35, -14.45)" d="M 137.3 28.9 L 137.3 28.9 L 142.4 0 L 116.30000000000001 0 L 116.30000000000001 26.9 C 124.6 27.4 135.3 28.6 137.3 28.9 z" stroke-linecap="round" />
</g>
<g transform="matrix(3.45 0 0 3.45 493.4 82.03)"  >
<path style="stroke: none; stroke-width: 1; stroke-dasharray: none; stroke-linecap: butt; stroke-dashoffset: 0; stroke-linejoin: miter; stroke-miterlimit: 4; fill: rgb(35,31,32); fill-rule: nonzero; opacity: 1;" vector-effect="non-scaling-stroke"  transform=" translate(-101.35, -14.4)" d="M 114.4 0 L 88.3 0 L 93.39999999999999 28.8 C 95.39999999999999 28.5 114.79999999999998 26.900000000000002 114.39999999999999 26.900000000000002 L 114.39999999999999 0 z" stroke-linecap="round" />
</g>
<g transform="matrix(3.45 0 0 3.45 539.14 540)"  >
<path style="stroke: rgb(255,255,255); stroke-width: 1; stroke-dasharray: none; stroke-linecap: butt; stroke-dashoffset: 0; stroke-linejoin: miter; stroke-miterlimit: 10; fill: none; fill-rule: nonzero; opacity: 1;" vector-effect="non-scaling-stroke"  transform=" translate(-114.6, -147.05)" d="M 114.7 0 L 0 0 L 0 207.6 C 0 231.2 22.6 247.89999999999998 59.8 268.5 C 89 284.6 114.6 294.1 114.6 294.1 C 114.6 294.1 140.2 284.5 169.39999999999998 268.5 C 206.59999999999997 248 229.2 231.3 229.2 207.6 L 229.2 0 L 114.7 0 z" stroke-linecap="round" />
</g>
<g transform="matrix(3.45 0 0 3.45 474.92 1036.03)"  >
<path style="stroke: none; stroke-width: 1; stroke-dasharray: none; stroke-linecap: butt; stroke-dashoffset: 0; stroke-linejoin: miter; stroke-miterlimit: 4; fill: rgb(0,0,0); fill-rule: nonzero; opacity: 1;" vector-effect="non-scaling-stroke"  transform=" translate(-96, -290.72)" d="M 96 290.7 C 96 290.7 96 290.7 96 290.7 C 96 290.8 96 290.7 96 290.7 z" stroke-linecap="round" />
</g>
<g transform="matrix(3.45 0 0 3.45 724.51 595.07)"  >
<path style="stroke: none; stroke-width: 1; stroke-dasharray: none; stroke-linecap: butt; stroke-dashoffset: 0; stroke-linejoin: miter; stroke-miterlimit: 4; fill: rgb(0,0,0); fill-rule: nonzero; opacity: 1;" vector-effect="non-scaling-stroke"  transform=" translate(-168.29, -163)" d="M 124.2 241 C 138.1 208.4 178.8 96 161.9 52.80000000000001 C 161.9 52.80000000000001 202.3 79.60000000000001 182.1 132.70000000000002 C 168.6 168.20000000000002 146.39999999999998 221.3 136.5 249.90000000000003 C 154.2 227.20000000000005 203.7 144.40000000000003 199.5 107.80000000000004 C 199.5 107.80000000000004 220.4 133.80000000000004 198.7 173.70000000000005 C 182.39999999999998 203.90000000000003 177.39999999999998 214.90000000000003 164.6 236.40000000000003 C 165.29999999999998 235.70000000000005 201.6 214.40000000000003 213.39999999999998 165.00000000000003 C 213.39999999999998 165.00000000000003 217.29999999999998 184.30000000000004 216.49999999999997 194.90000000000003 C 209.79999999999998 225.70000000000005 194.49999999999997 238.10000000000002 144.39999999999998 263.1 C 135.99999999999997 267.3 128.2 270 122.09999999999998 273.20000000000005 C 119.3 265 118.6 254.2 124.2 241 z" stroke-linecap="round" />
</g>
<g transform="matrix(3.45 0 0 3.45 356.11 595.07)"  >
<path style="stroke: none; stroke-width: 1; stroke-dasharray: none; stroke-linecap: butt; stroke-dashoffset: 0; stroke-linejoin: miter; stroke-miterlimit: 4; fill: rgb(0,0,0); fill-rule: nonzero; opacity: 1;" vector-effect="non-scaling-stroke"  transform=" translate(-61.59, -163)" d="M 105.7 241 C 91.8 208.4 51.1 96.1 68 52.8 C 68 52.8 27.6 79.6 47.8 132.7 C 61.3 168.2 83.5 221.29999999999998 93.4 249.89999999999998 C 75.7 227.2 26.200000000000003 144.39999999999998 30.400000000000006 107.79999999999998 C 30.400000000000006 107.79999999999998 9.500000000000007 133.79999999999998 31.200000000000006 173.7 C 47.50000000000001 203.89999999999998 52.50000000000001 214.89999999999998 65.30000000000001 236.39999999999998 C 64.60000000000001 235.7 28.30000000000001 214.39999999999998 16.500000000000014 164.99999999999997 C 16.500000000000014 164.99999999999997 12.600000000000014 184.29999999999998 13.400000000000015 194.89999999999998 C 20.100000000000016 225.7 35.40000000000001 238.09999999999997 85.50000000000001 263.09999999999997 C 93.90000000000002 267.29999999999995 101.70000000000002 269.99999999999994 107.80000000000001 273.2 C 110.5 265 111.3 254.2 105.7 241 z" stroke-linecap="round" />
</g>
<g transform="matrix(3.45 0 0 3.45 606.12 1036.17)"  >
<path style="stroke: none; stroke-width: 1; stroke-dasharray: none; stroke-linecap: butt; stroke-dashoffset: 0; stroke-linejoin: miter; stroke-miterlimit: 4; fill: rgb(0,0,0); fill-rule: nonzero; opacity: 1;" vector-effect="non-scaling-stroke"  transform=" translate(-134, -290.76)" d="M 134 290.8 C 134 290.7 134 290.7 134 290.8 C 134 290.7 134 290.8 134 290.8 z" stroke-linecap="round" />
</g>
<g transform="matrix(3.45 0 0 3.45 541.88 507.03)"  >
<path style="stroke: none; stroke-width: 1; stroke-dasharray: none; stroke-linecap: butt; stroke-dashoffset: 0; stroke-linejoin: miter; stroke-miterlimit: 4; fill: rgb(255,255,255); fill-rule: nonzero; opacity: 1;" vector-effect="non-scaling-stroke"  transform=" translate(-115.39, -137.5)" d="M 127.1 189.2 C 125.8 189.2 124.39999999999999 188.1 123.69999999999999 186.39999999999998 L 115 167 C 114.8 166.5 114.6 166.4 114.5 166.4 C 114.4 166.4 114.2 166.5 114 167 L 104.3 185.9 C 103.5 187.5 102.1 188.5 100.8 188.5 C 100.39999999999999 188.5 100.1 188.4 99.8 188.3 C 98.89999999999999 187.8 79.9 178.10000000000002 79.9 178.10000000000002 C 78.9 177.60000000000002 78.2 176.70000000000002 77.9 175.70000000000002 C 77.60000000000001 174.60000000000002 77.7 173.50000000000003 78.2 172.60000000000002 L 87.9 153.70000000000002 C 88.10000000000001 153.3 88.10000000000001 153.00000000000003 88.10000000000001 153.00000000000003 C 88.10000000000001 153.00000000000003 88.00000000000001 153.00000000000003 87.80000000000001 153.00000000000003 C 87.70000000000002 153.00000000000003 87.50000000000001 153.00000000000003 87.4 153.00000000000003 L 66.5 157 C 66.1 157.1 65.7 157.1 65.4 157.1 C 63.60000000000001 157.1 62.2 156.2 61.900000000000006 154.9 C 61.7 153.9 57.60000000000001 133.20000000000002 57.50000000000001 133 C 57.300000000000004 131.9 57.50000000000001 130.8 58.10000000000001 129.9 C 58.70000000000001 129 59.60000000000001 128.4 60.70000000000001 128.1 L 81.60000000000001 123.89999999999999 C 82.10000000000001 123.8 82.30000000000001 123.6 82.30000000000001 123.6 C 82.30000000000001 123.6 82.20000000000002 123.3 81.80000000000001 123 L 65.50000000000001 109.3 C 63.80000000000001 107.8 63.500000000000014 105.2 65.00000000000001 103.5 L 78.60000000000001 87.3 C 79.4 86.39999999999999 80.50000000000001 85.8 81.80000000000001 85.8 C 82.80000000000001 85.8 83.70000000000002 86.1 84.50000000000001 86.8 L 95.2 96 C 96.7 97.3 97.9 99.9 97.9 101.9 L 97.5 116.5 L 92.9 134.3 C 92.5 135.70000000000002 93 137.8 93.80000000000001 139 L 102.9 151.1 C 103.7 152.2 105.7 153.2 107.10000000000001 153.29999999999998 C 107.10000000000001 153.29999999999998 122.4 153.7 122.4 153.7 C 123.9 153.7 125.9 152.79999999999998 126.7 151.79999999999998 L 136.5 140.2 C 137.4 139.1 138 137 137.7 135.6 L 134.1 117.6 L 134.5 103 C 134.6 101 135.9 98.4 137.5 97.2 L 148.8 88.7 C 149.5 88.2 150.4 87.9 151.3 87.9 C 152.60000000000002 87.9 153.8 88.5 154.60000000000002 89.5 L 167.3 106.4 C 168.70000000000002 108.2 168.3 110.80000000000001 166.5 112.2 L 149.5 125 C 149.1 125.3 149 125.5 149 125.6 C 149 125.6 149.2 125.8 149.7 125.89999999999999 L 170.29999999999998 131.2 C 171.39999999999998 131.5 172.29999999999998 132.1 172.79999999999998 133.1 C 173.39999999999998 134.1 173.49999999999997 135.2 173.2 136.2 C 173.2 136.2 167.89999999999998 156.79999999999998 167.6 157.79999999999998 C 167.29999999999998 158.99999999999997 166 159.79999999999998 164.29999999999998 159.79999999999998 C 163.79999999999998 159.79999999999998 163.29999999999998 159.7 162.89999999999998 159.6 L 142.29999999999998 154.29999999999998 C 142.1 154.29999999999998 141.89999999999998 154.2 141.79999999999998 154.2 C 141.6 154.2 141.49999999999997 154.2 141.49999999999997 154.2 C 141.49999999999997 154.2 141.49999999999997 154.5 141.69999999999996 154.89999999999998 L 150.39999999999995 174.29999999999998 C 150.89999999999995 175.29999999999998 150.89999999999995 176.39999999999998 150.49999999999994 177.49999999999997 C 150.09999999999994 178.59999999999997 149.29999999999995 179.29999999999998 148.29999999999995 179.79999999999998 C 148.29999999999995 179.79999999999998 128.89999999999995 188.49999999999997 127.89999999999995 188.89999999999998 C 127.8 189.1 127.4 189.2 127.1 189.2 z" stroke-linecap="round" />
</g>
<g transform="matrix(3.45 0 0 3.45 542.01 507.37)"  >
<path style="stroke: none; stroke-width: 1; stroke-dasharray: none; stroke-linecap: butt; stroke-dashoffset: 0; stroke-linejoin: miter; stroke-miterlimit: 4; fill: rgb(38,169,224); fill-rule: nonzero; opacity: 1;" vector-effect="non-scaling-stroke"  transform=" translate(-115.43, -137.6)" d="M 81.8 87 C 82.5 87 83.2 87.2 83.8 87.7 L 94.6 96.8 C 95.89999999999999 97.89999999999999 97 100.2 96.89999999999999 101.89999999999999 L 96.49999999999999 116.39999999999999 L 91.99999999999999 134.1 C 91.59999999999998 135.79999999999998 92.09999999999998 138.2 93.09999999999998 139.6 L 102.19999999999997 151.7 C 103.19999999999997 153.1 105.49999999999997 154.2 107.19999999999997 154.29999999999998 L 122.49999999999997 154.7 C 122.49999999999997 154.7 122.59999999999997 154.7 122.59999999999997 154.7 C 124.29999999999997 154.7 126.49999999999997 153.7 127.59999999999997 152.39999999999998 L 137.39999999999998 140.79999999999998 C 138.49999999999997 139.49999999999997 139.09999999999997 136.99999999999997 138.79999999999998 135.29999999999998 L 135.2 117.39999999999998 L 135.6 102.89999999999998 C 135.6 101.19999999999997 136.79999999999998 98.89999999999998 138.2 97.89999999999998 L 149.5 89.39999999999998 C 150.1 88.99999999999997 150.7 88.79999999999998 151.4 88.79999999999998 C 152.3 88.79999999999998 153.3 89.19999999999999 153.9 89.99999999999999 L 166.6 106.89999999999998 C 167.6 108.29999999999998 167.4 110.19999999999997 166 111.29999999999998 L 149 124.09999999999998 C 147.6 125.09999999999998 147.9 126.29999999999998 149.5 126.79999999999998 L 170.1 132.1 C 171.79999999999998 132.5 172.79999999999998 134.2 172.29999999999998 135.9 C 172.29999999999998 135.9 166.99999999999997 156.5 166.7 157.5 C 166.5 158.3 165.5 158.7 164.39999999999998 158.7 C 163.99999999999997 158.7 163.59999999999997 158.7 163.2 158.5 L 142.6 153.2 C 142.29999999999998 153.1 142.1 153.1 141.9 153.1 C 140.8 153.1 140.3 154 140.9 155.29999999999998 L 149.6 174.7 C 150.29999999999998 176.29999999999998 149.6 178.1 148 178.79999999999998 C 148 178.79999999999998 128.6 187.49999999999997 127.6 187.89999999999998 C 127.39999999999999 187.99999999999997 127.3 187.99999999999997 127.1 187.99999999999997 C 126.19999999999999 187.99999999999997 125.19999999999999 187.09999999999997 124.6 185.79999999999998 L 115.89999999999999 166.39999999999998 C 115.49999999999999 165.59999999999997 115.1 165.2 114.49999999999999 165.2 C 114.49999999999999 165.2 114.49999999999999 165.2 114.49999999999999 165.2 C 113.99999999999999 165.2 113.49999999999999 165.6 113.09999999999998 166.29999999999998 L 103.39999999999998 185.2 C 102.79999999999998 186.39999999999998 101.69999999999997 187.2 100.79999999999998 187.2 C 100.59999999999998 187.2 100.39999999999998 187.2 100.19999999999999 187.1 C 99.29999999999998 186.6 80.29999999999998 176.9 80.29999999999998 176.9 C 78.79999999999998 176.1 78.19999999999999 174.20000000000002 78.99999999999999 172.70000000000002 L 88.69999999999999 153.8 C 89.39999999999999 152.5 88.89999999999999 151.60000000000002 87.69999999999999 151.60000000000002 C 87.49999999999999 151.60000000000002 87.29999999999998 151.60000000000002 87.1 151.70000000000002 L 66.3 156 C 66 156.1 65.7 156.1 65.3 156.1 C 64 156.1 63 155.6 62.8 154.7 C 62.599999999999994 153.7 58.4 132.79999999999998 58.4 132.79999999999998 C 58.1 131.1 59.199999999999996 129.49999999999997 60.8 129.1 L 81.69999999999999 124.89999999999999 C 83.39999999999999 124.6 83.69999999999999 123.39999999999999 82.39999999999999 122.3 L 66.1 108.6 C 64.8 107.5 64.6 105.5 65.69999999999999 104.19999999999999 L 79.29999999999998 87.99999999999999 C 80 87.4 80.9 87 81.8 87 M 81.8 85 C 80.3 85 78.89999999999999 85.7 77.89999999999999 86.8 L 64.2 103 C 62.400000000000006 105.2 62.7 108.4 64.8 110.2 L 80.3 123.2 L 60.5 127.2 C 59.2 127.5 58 128.2 57.3 129.4 C 56.5 130.5 56.3 131.9 56.5 133.3 C 56.5 133.5 60.7 154.20000000000002 60.9 155.20000000000002 C 61.3 157.00000000000003 63.1 158.20000000000002 65.4 158.20000000000002 C 65.80000000000001 158.20000000000002 66.30000000000001 158.20000000000002 66.7 158.10000000000002 L 86.6 154.10000000000002 L 77.3 172.10000000000002 C 76.7 173.3 76.6 174.70000000000002 77 176.00000000000003 C 77.4 177.30000000000004 78.3 178.40000000000003 79.5 179.00000000000003 C 79.5 179.00000000000003 98.4 188.70000000000002 99.4 189.20000000000002 C 99.9 189.4 100.4 189.60000000000002 100.9 189.60000000000002 C 102.60000000000001 189.60000000000002 104.30000000000001 188.40000000000003 105.2 186.50000000000003 L 114.5 168.40000000000003 L 122.8 186.90000000000003 C 123.7 188.90000000000003 125.39999999999999 190.20000000000005 127.1 190.20000000000005 C 127.6 190.20000000000005 128 190.10000000000005 128.4 189.90000000000003 C 129.4 189.50000000000003 148.6 180.80000000000004 148.8 180.80000000000004 C 150 180.20000000000005 151 179.20000000000005 151.5 177.90000000000003 C 152 176.60000000000002 151.9 175.20000000000005 151.4 174.00000000000003 L 143.1 155.50000000000003 L 162.7 160.50000000000003 C 163.29999999999998 160.60000000000002 163.79999999999998 160.70000000000002 164.39999999999998 160.70000000000002 C 166.59999999999997 160.70000000000002 168.2 159.60000000000002 168.7 158.00000000000003 C 169 157.00000000000003 174.29999999999998 136.40000000000003 174.29999999999998 136.40000000000003 C 174.6 135.10000000000002 174.39999999999998 133.70000000000005 173.7 132.50000000000003 C 173 131.30000000000004 171.89999999999998 130.50000000000003 170.6 130.20000000000002 L 151 125.20000000000002 L 167.2 113.00000000000001 C 169.5 111.30000000000001 169.89999999999998 108.10000000000001 168.2 105.80000000000001 L 155.5 88.9 C 154.5 87.60000000000001 153 86.9 151.4 86.9 C 150.3 86.9 149.20000000000002 87.30000000000001 148.3 87.9 L 137 96.4 C 135.1 97.80000000000001 133.7 100.60000000000001 133.6 102.9 L 133.2 117.4 L 133.2 117.60000000000001 L 133.2 117.80000000000001 L 136.79999999999998 135.70000000000002 C 136.99999999999997 136.8 136.49999999999997 138.60000000000002 135.79999999999998 139.50000000000003 L 125.99999999999999 151.10000000000002 C 125.29999999999998 151.90000000000003 123.59999999999998 152.70000000000002 122.49999999999999 152.70000000000002 L 122.39999999999999 152.70000000000002 L 107.1 152.3 C 106 152.3 104.3 151.4 103.6 150.5 L 94.5 138.4 C 93.8 137.5 93.5 135.70000000000002 93.7 134.6 L 98.2 116.89999999999999 L 98.3 116.69999999999999 L 98.3 116.49999999999999 L 98.7 101.99999999999999 C 98.8 99.69999999999999 97.5 96.79999999999998 95.7 95.29999999999998 L 84.9 86.19999999999999 C 84.1 85.4 83 85 81.8 85 L 81.8 85 z" stroke-linecap="round" />
</g>
<g transform="matrix(3.45 0 0 3.45 544.49 399.31)"  >
<path style="stroke: none; stroke-width: 1; stroke-dasharray: none; stroke-linecap: butt; stroke-dashoffset: 0; stroke-linejoin: miter; stroke-miterlimit: 4; fill: rgb(255,255,255); fill-rule: nonzero; opacity: 1;" vector-effect="non-scaling-stroke"  transform=" translate(-116.15, -106.3)" d="M 104.6 142.9 C 102.3 142.8 100.5 140.9 100.6 138.70000000000002 L 102.39999999999999 73.10000000000002 C 102.49999999999999 70.90000000000002 104.3 69.10000000000002 106.49999999999999 69.10000000000002 L 127.69999999999999 69.70000000000002 C 130 69.80000000000001 131.79999999999998 71.70000000000002 131.7 73.90000000000002 L 129.89999999999998 139.5 C 129.79999999999998 141.7 127.99999999999997 143.5 125.79999999999998 143.5 L 104.6 142.9 z" stroke-linecap="round" />
</g>
<g transform="matrix(3.45 0 0 3.45 544.14 399.48)"  >
<path style="stroke: none; stroke-width: 1; stroke-dasharray: none; stroke-linecap: butt; stroke-dashoffset: 0; stroke-linejoin: miter; stroke-miterlimit: 4; fill: rgb(38,169,224); fill-rule: nonzero; opacity: 1;" vector-effect="non-scaling-stroke"  transform=" translate(-116.05, -106.35)" d="M 106.4 70.1 C 106.5 70.1 106.5 70.1 106.4 70.1 L 127.60000000000001 70.69999999999999 C 129.3 70.69999999999999 130.70000000000002 72.19999999999999 130.60000000000002 73.89999999999999 L 128.8 139.5 C 128.8 141.2 127.4 142.5 125.70000000000002 142.5 C 125.70000000000002 142.5 125.60000000000002 142.5 125.60000000000002 142.5 L 104.50000000000003 141.9 C 102.80000000000003 141.9 101.40000000000003 140.4 101.50000000000003 138.70000000000002 L 103.30000000000003 73.10000000000002 C 103.4 71.4 104.8 70.1 106.4 70.1 M 106.4 68.1 L 106.4 68.1 C 103.60000000000001 68.1 101.4 70.3 101.30000000000001 73.1 L 99.50000000000001 138.7 C 99.40000000000002 141.5 101.70000000000002 143.89999999999998 104.50000000000001 144 L 125.60000000000002 144.6 L 125.70000000000002 144.6 C 128.50000000000003 144.6 130.70000000000002 142.4 130.8 139.6 L 132.60000000000002 74 C 132.70000000000002 71.2 130.40000000000003 68.8 127.60000000000002 68.7 L 106.50000000000003 68.10000000000001 L 106.4 68.1 L 106.4 68.1 z" stroke-linecap="round" />
</g>
</svg>