<svg xmlns="http://www.w3.org/2000/svg" viewBox="0 0 147 169" class="logo logo"><defs></defs><path d="M58.98 69.807a18.788 18.788 0 0029.041 0zM88.021 99.194a18.789 18.789 0 00-29.042 0z" style="fill: #d1818e;"></path><path d="M93.024 57.886v-.737H53.977v.737a19.553 19.553 0 0013.149 18.449l-7.644 7.645v1.042l7.643 7.644a19.554 19.554 0 00-13.148 18.449v.737h39.047v-.737a19.554 19.554 0 00-13.148-18.449l7.644-7.644V83.98l-7.644-7.645a19.554 19.554 0 0013.148-18.449zM61.045 84.5l7.683-7.684a19.44 19.44 0 003.073.514l-6.649 6.65v1.042L71.8 91.67a19.447 19.447 0 00-3.072.514zm5.67 0l6.785-6.785 6.786 6.785-6.786 6.786zm24.82 25.877H55.466a18.05 18.05 0 0136.069 0zM85.956 84.5l-7.683 7.683a19.427 19.427 0 00-3.073-.513l6.649-6.648V83.98L75.2 77.331a19.427 19.427 0 003.072-.514zM73.5 75.935a18.07 18.07 0 01-18.034-17.312h36.069A18.07 18.07 0 0173.5 75.935z" style="fill: #ffffff;"></path><path transform="rotate(-45 104.767 62.547)" d="M101.094 58.874h7.347v7.347h-7.347z" style="fill: #ffffff;"></path><path transform="rotate(-45 104.768 78.435)" d="M101.094 74.761h7.347v7.347h-7.347z" style="fill: #ffffff;"></path><path transform="rotate(-45 42.234 106.458)" d="M38.561 102.784h7.347v7.347h-7.347z" cstyle="fill: #ffffff;"></path><path d="M23.106 53.283l50.389-29.538 51.045 29.166 5.551-3.206L73.5 17.031 16.909 49.705l6.197 3.578zM29.034 58.975l-5.571-3.216v15.722H21.5V54.624l-5.571-3.217v15.019H5.2l17.28 26.121 17.276-26.121H29.034zm1.319 12.506l-7.873 11.9-7.873-11.9zM125.503 54.624v9.938h-.029l5.6 8.467V51.407l-5.571 3.217z" style="fill: #ffffff;"></path><path d="M122.569 54.048L73.507 26.016 25.064 54.414l4.952 2.859L73.5 32.168l43.484 25.105 5.585-3.225zM123.538 64.562v-8.803l-5.571 3.216v14.053l5.599-8.466h-.028z" style="fill: #ffffff;"></path><path d="M73.5 168.884L.421 126.693V42.307L73.5.116l73.079 42.191v84.386zM2.761 125.342l70.739 40.84 70.739-40.84V43.658L73.5 2.818 2.761 43.658z" style="fill: #d1818e;"></path><path d="M123.895 115.717l-50.389 29.538-51.045-29.165-5.552 3.205L73.5 151.969l56.591-32.674-6.196-3.578zM117.967 110.025l5.571 3.217V97.519h1.962v16.857l5.571 3.217v-15.018H141.8l-17.279-26.121-17.277 26.121h10.723zm-1.319-12.506l7.873-11.9 7.872 11.9zM21.498 114.376v-9.938h.028l-5.6-8.467v21.622l5.572-3.217z" style="fill: #ffffff;"></path><path d="M24.431 114.952l49.062 28.032 48.444-28.397-4.953-2.86L73.5 136.833l-43.483-25.106-5.586 3.225zM23.463 104.438v8.804l5.571-3.217V95.972l-5.6 8.466h.029z" style="fill: #ffffff;"></path></svg>