<svg xmlns="http://www.w3.org/2000/svg" width="455" height="505" viewBox="0 0 455 505">
  <g fill="none">
    <path fill="#00E5FF" stroke="#FFF" stroke-width="48" d="M431,341.824292 C431,359.321852 421.669595,375.491603 406.520492,384.247698 L252.020493,473.547837 C244.43496,477.932233 235.96748,480.124431 227.5,480.124431 C219.03252,480.124431 210.56504,477.932233 202.979508,473.547837 L48.4795084,384.247699 C33.3304048,375.491603 24,359.321852 24,341.824292 L24,163.175708 C24,145.678149 33.3304039,129.508399 48.4795072,120.752301 L202.979507,31.4521623 C210.56504,27.0677666 219.03252,24.8755688 227.5,24.8755688 C235.96748,24.8755688 244.43496,27.0677666 252.020492,31.4521621 L406.520492,120.752301 C421.669596,129.508398 431,145.678149 431,163.175708 L431,341.824292 Z"/>
    <path fill="#490000" d="M53.3413207,357.269334 L317.968714,407.706562 L240.010455,452.769026 C232.270116,457.242899 222.729884,457.242899 214.989545,452.769026 L60.4895445,363.468887 C57.6884744,361.849884 55.2773068,359.734103 53.3413207,357.269334 Z"/>
    <path fill="#790239" d="M394.510455,363.468887 L317.972035,407.707665 L53.3404097,357.268174 C53.0791881,356.935564 52.8266193,356.596599 52.5829128,356.251644 L402.417495,356.251067 C400.367413,359.153038 397.690151,361.631041 394.510455,363.468887 Z"/>
    <path fill="#DD2C00" d="M407,341.824292 C407,347.07862 405.350942,352.098271 402.418125,356.250174 L52.581875,356.250174 L52.3276863,355.88343 L52.3276863,355.88343 L52.0853592,355.520282 L407,292.072569 L407,341.824292 Z"/>
    <polygon fill="#FF6D00" points="406.999 292.073 52.085 355.52 51.867 355.18 51.867 355.18 51.673 354.869 407 221.256"/>
    <path fill="#FFAB00" d="M403.513055,150.440382 L403.606332,150.599284 C405.792479,154.35513 407,158.679498 407,163.175708 L407,221.255638 L51.6733102,354.869321 C51.5610964,354.685856 51.4512556,354.500958 51.3438153,354.314675 L403.513055,150.440382 Z"/>
    <path fill="#FFF" d="M351.014,116.390569 L394.510455,141.531113 C398.291827,143.716725 401.36263,146.80768 403.513055,150.440382 L51.3437468,354.314556 C49.1891459,350.578802 48,346.286161 48,341.824292 L48,338.599569 L351.014,116.390569 Z"/>
    <path fill="#FFF" d="M190.96947,10.6733511 C213.345243,-2.2597215 240.872115,-2.38905222 263.35091,10.2853589 L264.03053,10.6733511 L418.530528,99.973489 C440.873911,112.887839 454.721125,136.627227 455,162.394277 L455,163.175708 L455,341.824292 C455,367.631407 441.376219,391.499725 419.204996,404.631862 L418.530529,405.02651 L264.03053,494.326648 C241.654757,507.259721 214.127885,507.389052 191.64909,494.714641 L190.969471,494.326649 L36.4694723,405.026511 C14.1260891,392.112162 0.278874835,368.372773 0,342.605723 L0,341.824292 L0,163.175708 C0,137.368594 13.6237798,113.500278 35.7950037,100.368138 L36.4694701,99.9734899 L190.96947,10.6733511 Z M240.010455,52.2309736 C232.40357,47.8342363 223.058322,47.7584305 215.391494,52.0035561 L214.989545,52.2309736 L60.4895445,141.531113 C52.8871173,145.925273 48.1568769,153.978911 48.0038301,162.737219 L48,163.175708 L48,341.824292 C48,350.605268 52.6056105,358.730821 60.1118245,363.246143 L60.4895445,363.468887 L214.989545,452.769026 C222.59643,457.165763 231.941678,457.241569 239.608506,452.996443 L240.010455,452.769026 L394.510455,363.468887 C402.112883,359.074727 406.843123,351.021089 406.99617,342.262781 L407,341.824292 L407,163.175708 C407,154.394732 402.39439,146.269179 394.888175,141.753857 L394.510455,141.531113 L240.010455,52.2309736 Z"/>
  </g>
</svg>
